<svg width="300" height="300" viewBox="0 0 300 300" xmlns="http://www.w3.org/2000/svg">
    <!-- Cloudy Pillow Shape -->
    <path d="
    M50,100
    Q30,60 60,50
    Q80,30 100,60
    Q140,20 170,60
    Q210,30 230,60
    Q260,50 250,100
    Q280,140 250,170
    Q260,210 230,230
    Q210,250 170,230
    Q140,270 100,230
    Q80,250 60,230
    Q30,210 50,170
    Q20,140 50,100
  "
          fill="#f7c6d9" stroke="#5c4a7a" stroke-width="5" />

<!--    &lt;!&ndash; Stars &ndash;&gt;-->
<!--    <polygon points="60,80 64,92 77,92 66,100 70,112 60,104 50,112 54,100 43,92 56,92"-->
<!--             fill="#ffeb3b" stroke="#37474f" stroke-width="3"/>-->
<!--    <polygon points="240,80 244,92 257,92 246,100 250,112 240,104 230,112 234,100 223,92 236,92"-->
<!--             fill="#ffeb3b" stroke="#37474f" stroke-width="3"/>-->
<!--    <polygon points="150,210 154,222 167,222 156,230 160,242 150,234 140,242 144,230 133,222 146,222"-->
<!--             fill="#ffeb3b" stroke="#37474f" stroke-width="3"/>-->

    <!-- Text -->
    <text x="50%" y="150" dominant-baseline="middle" text-anchor="middle"
          font-family="Blippo, fantasy" font-size="64"
          fill="#ff8c00" stroke="#37474f" stroke-width="3" font-weight="bold">
        Pela
    </text>
</svg>
